<?xml version="1.0" encoding="UTF-8"?>
<!DOCTYPE svg PUBLIC "-//W3C//DTD SVG 1.1//EN" "http://www.w3.org/Graphics/SVG/1.1/DTD/svg11.dtd">
<svg xmlns="http://www.w3.org/2000/svg" version="1.1" width="2084px" height="2084px" style="shape-rendering:geometricPrecision; text-rendering:geometricPrecision; image-rendering:optimizeQuality; fill-rule:evenodd; clip-rule:evenodd" xmlns:xlink="http://www.w3.org/1999/xlink">
<g><path style="opacity:0.999" fill="#00aeef" d="M 1015.5,149.5 C 1255.01,146.474 1463.68,223.974 1641.5,382C 1819.28,548.43 1915.78,753.93 1931,998.5C 1939.36,1242.8 1863.36,1456.13 1703,1638.5C 1534.15,1820.65 1324.98,1918.49 1075.5,1932C 827.501,1938.14 612.501,1858.14 430.5,1692C 258.414,1526.61 164.914,1324.11 150,1084.5C 141.5,846.976 213.5,637.976 366,457.5C 524.413,278.703 723.246,177.203 962.5,153C 980.311,151.624 997.978,150.457 1015.5,149.5 Z"/></g>
<g><path style="opacity:1" fill="#fefefe" d="M 1242.5,759.5 C 1241.5,772.323 1241.17,785.323 1241.5,798.5C 1254.83,798.5 1268.17,798.5 1281.5,798.5C 1281.5,805.833 1281.5,813.167 1281.5,820.5C 1268.17,820.5 1254.83,820.5 1241.5,820.5C 1241.5,870.5 1241.5,920.5 1241.5,970.5C 1230.83,970.5 1220.17,970.5 1209.5,970.5C 1209.5,920.5 1209.5,870.5 1209.5,820.5C 1199.5,820.5 1189.5,820.5 1179.5,820.5C 1179.5,813.167 1179.5,805.833 1179.5,798.5C 1189.5,798.5 1199.5,798.5 1209.5,798.5C 1209.5,784.833 1209.5,771.167 1209.5,757.5C 1212.2,731.633 1226.53,717.133 1252.5,714C 1263.96,713.183 1275.3,714.016 1286.5,716.5C 1286.5,725.5 1286.5,734.5 1286.5,743.5C 1275.42,743.069 1264.42,743.569 1253.5,745C 1246.92,747.735 1243.25,752.568 1242.5,759.5 Z"/></g>
<g><path style="opacity:1" fill="#fdfefe" d="M 1474.5,713.5 C 1529.19,710.746 1569.03,733.412 1594,781.5C 1612.39,830.623 1603.56,874.123 1567.5,912C 1526.85,945.905 1482.52,951.571 1434.5,929C 1391.83,903.459 1372,865.625 1375,815.5C 1382.55,766.617 1409.72,734.117 1456.5,718C 1462.77,717.052 1468.77,715.552 1474.5,713.5 Z"/></g>
<g><path style="opacity:1" fill="#34b6f0" d="M 1468.5,719.5 C 1470.53,719.338 1472.53,719.505 1474.5,720C 1468.59,722.535 1463.09,725.702 1458,729.5C 1456.31,727.983 1454.81,726.316 1453.5,724.5C 1458.53,722.601 1463.53,720.934 1468.5,719.5 Z"/></g>
<g><path style="opacity:1" fill="#2eb5f0" d="M 1503.5,720.5 C 1510.75,719.95 1517.75,721.45 1524.5,725C 1522.98,726.351 1521.65,727.851 1520.5,729.5C 1515.25,725.71 1509.59,722.71 1503.5,720.5 Z"/></g>
<g><path style="opacity:1" fill="#fefffe" d="M 793.5,721.5 C 806.5,721.5 819.5,721.5 832.5,721.5C 832.5,733.5 832.5,745.5 832.5,757.5C 819.5,757.5 806.5,757.5 793.5,757.5C 793.5,745.5 793.5,733.5 793.5,721.5 Z"/></g>
<g><path style="opacity:1" fill="#27b3f0" d="M 1477.5,723.5 C 1479.03,723.517 1479.53,724.184 1479,725.5C 1476,729.5 1473,733.5 1470,737.5C 1467.67,736.167 1465.33,734.833 1463,733.5C 1462.31,732.668 1462.48,732.002 1463.5,731.5C 1468.23,728.806 1472.9,726.14 1477.5,723.5 Z"/></g>
<g><path style="opacity:1" fill="#1cb1ef" d="M 1491.5,723.5 C 1495.5,728.177 1499.16,733.177 1502.5,738.5C 1501.97,739.192 1501.31,739.692 1500.5,740C 1497.52,740.498 1494.52,740.665 1491.5,740.5C 1491.5,734.833 1491.5,729.167 1491.5,723.5 Z"/></g>
<g><path style="opacity:1" fill="#2bb4f0" d="M 1497.5,723.5 C 1497.56,722.957 1497.89,722.624 1498.5,722.5C 1503.01,725.254 1507.67,727.754 1512.5,730C 1514.26,730.72 1515.09,731.887 1515,733.5C 1512.67,734.833 1510.33,736.167 1508,737.5C 1504.72,732.586 1501.22,727.92 1497.5,723.5 Z"/></g>
<g><path style="opacity:1" fill="#25b2ef" d="M 1485.5,724.5 C 1486.49,729.975 1486.82,735.642 1486.5,741.5C 1482.54,741.379 1478.88,740.379 1475.5,738.5C 1478.47,733.537 1481.8,728.87 1485.5,724.5 Z"/></g>
<g><path style="opacity:1" fill="#13afef" d="M 1445.5,726.5 C 1448.79,727.264 1451.45,729.097 1453.5,732C 1448.83,736 1444.17,740 1439.5,744C 1441.36,745.301 1443.36,745.635 1445.5,745C 1449.36,741.643 1453.36,738.476 1457.5,735.5C 1460.87,737.846 1464.2,740.179 1467.5,742.5C 1465.11,746.113 1463.11,749.946 1461.5,754C 1462.1,755.301 1463.1,756.135 1464.5,756.5C 1467.33,752.167 1470.17,747.833 1473,743.5C 1477.32,745.148 1481.82,745.814 1486.5,745.5C 1486.5,751.833 1486.5,758.167 1486.5,764.5C 1482.12,764.174 1477.78,764.508 1473.5,765.5C 1474.04,766.748 1474.71,767.915 1475.5,769C 1479.15,769.499 1482.82,769.665 1486.5,769.5C 1486.5,780.833 1486.5,792.167 1486.5,803.5C 1488.17,803.5 1489.83,803.5 1491.5,803.5C 1491.5,800.833 1491.5,798.167 1491.5,795.5C 1498.52,795.392 1505.52,794.892 1512.5,794C 1513.83,792.667 1515.17,791.333 1516.5,790C 1508.18,789.975 1499.84,790.141 1491.5,790.5C 1491.5,783.5 1491.5,776.5 1491.5,769.5C 1500.24,768.984 1508.91,768.151 1517.5,767C 1519.86,773.075 1522.03,779.241 1524,785.5C 1525.01,784.663 1526.18,784.33 1527.5,784.5C 1526.61,777.662 1524.61,771.162 1521.5,765C 1528.17,762.556 1534.67,759.722 1541,756.5C 1542.94,757.439 1544.61,758.773 1546,760.5C 1549.42,765.668 1552.59,771.002 1555.5,776.5C 1546.38,780.25 1546.88,781.917 1557,781.5C 1558.78,783.946 1561.11,785.613 1564,786.5C 1564.29,784.217 1563.79,782.05 1562.5,780C 1562.83,779.5 1563.17,779 1563.5,778.5C 1569.52,774.994 1575.52,771.827 1581.5,769C 1598.83,796.463 1603.33,825.963 1595,857.5C 1588.11,880.139 1575.61,898.972 1557.5,914C 1555.36,914.635 1553.36,914.301 1551.5,913C 1543.56,907.496 1540.06,899.996 1541,890.5C 1569.19,888.311 1586.19,873.311 1592,845.5C 1592.86,815.696 1579.02,796.529 1550.5,788C 1532.43,785.866 1518.1,792.199 1507.5,807C 1500.98,810.639 1493.98,812.472 1486.5,812.5C 1485.19,815.652 1485.52,818.652 1487.5,821.5C 1486.58,823.756 1484.91,824.756 1482.5,824.5C 1482.66,826.857 1482.5,829.19 1482,831.5C 1480.67,832.167 1479.33,832.833 1478,833.5C 1477.67,835.5 1477.33,837.5 1477,839.5C 1472.94,842.572 1471.61,846.572 1473,851.5C 1478.81,857.728 1484.81,863.728 1491,869.5C 1491.95,878.256 1493.45,886.923 1495.5,895.5C 1495.75,899.503 1494.08,902.336 1490.5,904C 1475.57,906.293 1461.24,910.626 1447.5,917C 1434.53,921.464 1423.7,918.63 1415,908.5C 1413.67,903.405 1414.83,899.072 1418.5,895.5C 1422.47,897.94 1426.81,898.94 1431.5,898.5C 1440.33,898.191 1449,896.857 1457.5,894.5C 1471.43,899.748 1479.1,894.915 1480.5,880C 1478.83,876.488 1476.16,875.654 1472.5,877.5C 1471.57,876.311 1471.24,874.978 1471.5,873.5C 1469.47,873.338 1467.47,873.505 1465.5,874C 1462.8,876.351 1459.8,878.184 1456.5,879.5C 1449.67,879.1 1443,877.933 1436.5,876C 1435.67,875.167 1434.83,874.333 1434,873.5C 1431.92,859.087 1429.92,844.754 1428,830.5C 1429.18,828.643 1430.85,827.643 1433,827.5C 1437.42,828.249 1441.75,829.249 1446,830.5C 1448.25,830.369 1450.42,829.869 1452.5,829C 1454.46,826.365 1456.96,824.531 1460,823.5C 1461.46,821.028 1462.46,818.361 1463,815.5C 1464,814.833 1465,814.167 1466,813.5C 1465.79,810.189 1465.79,806.856 1466,803.5C 1469.45,798.945 1472.11,793.945 1474,788.5C 1475.41,781.058 1473.74,774.391 1469,768.5C 1457.14,753.809 1441.97,747.976 1423.5,751C 1406.02,758.452 1398.85,771.619 1402,790.5C 1403.33,795.457 1403.99,800.457 1404,805.5C 1402.83,807.333 1401.67,809.167 1400.5,811C 1393.24,814.879 1386.41,819.379 1380,824.5C 1381.08,790.847 1394.58,763.347 1420.5,742C 1428.56,736.307 1436.9,731.14 1445.5,726.5 Z"/></g>
<g><path style="opacity:1" fill="#1ab0ef" d="M 1529.5,726.5 C 1539.01,729.841 1547.67,734.675 1555.5,741C 1551.48,744.493 1547.15,747.16 1542.5,749C 1537.37,743.504 1531.87,738.337 1526,733.5C 1526.58,731.008 1527.75,728.675 1529.5,726.5 Z"/></g>
<g><path style="opacity:1" fill="#15b0ef" d="M 1519.5,735.5 C 1526.89,740.065 1533.06,745.732 1538,752.5C 1532.21,755.991 1526.04,758.158 1519.5,759C 1517.02,753.048 1514.02,747.382 1510.5,742C 1513.92,740.301 1516.92,738.135 1519.5,735.5 Z"/></g>
<g><path style="opacity:1" fill="#fafdfe" d="M 1363.5,743.5 C 1364.59,743.62 1365.25,744.287 1365.5,745.5C 1363.25,762.313 1356.25,776.646 1344.5,788.5C 1342.11,782.631 1341.95,776.631 1344,770.5C 1348.78,760.224 1355.28,751.224 1363.5,743.5 Z"/></g>
<g><path style="opacity:1" fill="#14afef" d="M 1503.5,743.5 C 1504.68,743.281 1505.68,743.614 1506.5,744.5C 1510.15,749.779 1512.65,755.446 1514,761.5C 1506.64,763.274 1499.14,764.274 1491.5,764.5C 1491.5,758.167 1491.5,751.833 1491.5,745.5C 1495.79,745.802 1499.79,745.136 1503.5,743.5 Z"/></g>
<g><path style="opacity:1" fill="#fafdfe" d="M 1612.5,742.5 C 1625.98,751.832 1633.98,764.665 1636.5,781C 1636.59,783.723 1635.92,786.223 1634.5,788.5C 1627.23,782.715 1622.06,775.382 1619,766.5C 1615.91,758.741 1613.75,750.741 1612.5,742.5 Z"/></g>
<g><path style="opacity:1" fill="#16b0ef" d="M 1558.5,744.5 C 1566.37,749.196 1572.71,755.53 1577.5,763.5C 1572.38,767.9 1566.71,771.567 1560.5,774.5C 1556.08,767.328 1551.41,760.328 1546.5,753.5C 1550.93,750.966 1554.93,747.966 1558.5,744.5 Z"/></g>
<g><path style="opacity:1" fill="#fafdfe" d="M 1604.5,767.5 C 1619.14,774.959 1628.3,786.626 1632,802.5C 1632.67,806.5 1632.67,810.5 1632,814.5C 1618.2,801.578 1609.04,785.911 1604.5,767.5 Z"/></g>
<g><path style="opacity:1" fill="#fafdfe" d="M 1373.5,768.5 C 1374.24,768.369 1374.91,768.536 1375.5,769C 1369.82,786.205 1360.49,801.038 1347.5,813.5C 1345.36,798.773 1350.02,786.607 1361.5,777C 1365.68,774.304 1369.68,771.47 1373.5,768.5 Z"/></g>
<g><path style="opacity:1" fill="#f7fcfe" d="M 1333.5,771.5 C 1335.66,775.14 1337.16,779.14 1338,783.5C 1341.05,798.028 1342.05,812.695 1341,827.5C 1340.18,829.788 1339.51,832.122 1339,834.5C 1329,822.291 1325.34,808.291 1328,792.5C 1329.27,785.323 1331.1,778.323 1333.5,771.5 Z"/></g>
<g><path style="opacity:1" fill="#fbfdfe" d="M 1644.5,771.5 C 1650.07,784.512 1651.91,798.179 1650,812.5C 1648.82,820.853 1645.49,828.186 1640,834.5C 1635.82,813.124 1637.32,792.124 1644.5,771.5 Z"/></g>
<g><path style="opacity:1" fill="#fdfefe" d="M 648.5,868.5 C 647.502,902.663 647.168,936.996 647.5,971.5C 636.833,971.5 626.167,971.5 615.5,971.5C 615.5,913.833 615.5,856.167 615.5,798.5C 625.833,798.5 636.167,798.5 646.5,798.5C 646.169,806.86 646.502,815.193 647.5,823.5C 648.107,823.376 648.44,823.043 648.5,822.5C 658.252,806.269 672.585,796.435 691.5,793C 709.122,791.572 725.789,794.906 741.5,803C 755.911,812.645 764.078,826.145 766,843.5C 766.5,886.165 766.667,928.832 766.5,971.5C 755.5,971.5 744.5,971.5 733.5,971.5C 733.667,931.832 733.5,892.165 733,852.5C 731.302,834.561 721.802,823.394 704.5,819C 681.808,815.101 664.641,822.934 653,842.5C 649.502,850.822 648.002,859.489 648.5,868.5 Z"/></g>
<g><path style="opacity:1" fill="#fdfefe" d="M 999.5,851.5 C 989.219,853.476 978.552,854.143 967.5,853.5C 963.741,823.445 947.074,811.945 917.5,819C 902.58,826.609 893.746,838.775 891,855.5C 886.575,879.554 887.909,903.221 895,926.5C 906.763,950.758 925.263,957.925 950.5,948C 962.152,939.533 968.152,928.033 968.5,913.5C 979.5,913.5 990.5,913.5 1001.5,913.5C 995.874,954.285 972.374,975.285 931,976.5C 894.154,976.094 870.154,958.427 859,923.5C 852.224,895.536 853.224,867.869 862,840.5C 878.673,804.572 906.839,789.072 946.5,794C 978.908,799.689 996.575,818.855 999.5,851.5 Z"/></g>
<g><path style="opacity:1" fill="#fdfefe" d="M 1171.5,865.5 C 1171.5,873.833 1171.5,882.167 1171.5,890.5C 1131,890.168 1090.66,890.501 1050.5,891.5C 1049.13,907.697 1052.63,922.697 1061,936.5C 1075.85,952.669 1093.68,956.836 1114.5,949C 1127.25,942.399 1134.25,931.899 1135.5,917.5C 1147.22,916.856 1158.55,917.522 1169.5,919.5C 1165.04,946.461 1149.71,963.961 1123.5,972C 1098.65,979.448 1074.65,977.448 1051.5,966C 1035.85,955.893 1025.68,941.727 1021,923.5C 1015.02,898.499 1015.02,873.499 1021,848.5C 1032.72,813.059 1057.22,794.726 1094.5,793.5C 1142.1,794.105 1167.77,818.105 1171.5,865.5 Z"/></g>
<g><path style="opacity:1" fill="#5cc9f4" d="M 1209.5,757.5 C 1209.5,771.167 1209.5,784.833 1209.5,798.5C 1199.5,798.5 1189.5,798.5 1179.5,798.5C 1188.99,797.506 1198.65,797.173 1208.5,797.5C 1208.17,783.99 1208.5,770.656 1209.5,757.5 Z"/></g>
<g><path style="opacity:1" fill="#42c2f3" d="M 1242.5,759.5 C 1242.5,772.167 1242.5,784.833 1242.5,797.5C 1255.68,797.171 1268.68,797.505 1281.5,798.5C 1268.17,798.5 1254.83,798.5 1241.5,798.5C 1241.17,785.323 1241.5,772.323 1242.5,759.5 Z"/></g>
<g><path style="opacity:1" fill="#ace4f9" d="M 465.5,911.5 C 464.502,874.004 464.168,836.337 464.5,798.5C 453.833,798.5 443.167,798.5 432.5,798.5C 432.5,839.5 432.5,880.5 432.5,921.5C 431.501,880.337 431.168,839.003 431.5,797.5C 442.833,797.5 454.167,797.5 465.5,797.5C 465.5,835.5 465.5,873.5 465.5,911.5 Z"/></g>
<g><path style="opacity:1" fill="#fefefe" d="M 432.5,921.5 C 432.5,880.5 432.5,839.5 432.5,798.5C 443.167,798.5 453.833,798.5 464.5,798.5C 464.168,836.337 464.502,874.004 465.5,911.5C 467.088,943.933 483.755,957.1 515.5,951C 530.333,946.833 539.833,937.333 544,922.5C 545.741,914.907 547.074,907.241 548,899.5C 548.5,865.502 548.667,831.502 548.5,797.5C 559.5,797.5 570.5,797.5 581.5,797.5C 581.5,855.5 581.5,913.5 581.5,971.5C 570.833,971.5 560.167,971.5 549.5,971.5C 549.666,963.16 549.5,954.827 549,946.5C 534.603,967.365 514.603,977.365 489,976.5C 462.652,976.5 444.985,964.167 436,939.5C 434.193,933.608 433.026,927.608 432.5,921.5 Z"/></g>
<g><path style="opacity:1" fill="#beeafa" d="M 648.5,822.5 C 648.44,823.043 648.107,823.376 647.5,823.5C 646.502,815.193 646.169,806.86 646.5,798.5C 636.167,798.5 625.833,798.5 615.5,798.5C 615.5,856.167 615.5,913.833 615.5,971.5C 615.167,971.5 614.833,971.5 614.5,971.5C 614.5,913.5 614.5,855.5 614.5,797.5C 625.5,797.5 636.5,797.5 647.5,797.5C 647.174,806.017 647.507,814.35 648.5,822.5 Z"/></g>
<g><path style="opacity:1" fill="#fefefe" d="M 796.5,797.5 C 807.5,797.5 818.5,797.5 829.5,797.5C 829.5,855.5 829.5,913.5 829.5,971.5C 818.5,971.5 807.5,971.5 796.5,971.5C 796.5,913.5 796.5,855.5 796.5,797.5 Z"/></g>
<g><path style="opacity:1" fill="#fafdfe" d="M 1363.5,803.5 C 1364.84,810.46 1364.34,817.46 1362,824.5C 1358.91,836.445 1353.91,847.445 1347,857.5C 1341.5,843.313 1343.17,829.98 1352,817.5C 1355.29,812.378 1359.12,807.711 1363.5,803.5 Z"/></g>
<g><path style="opacity:1" fill="#fafdfe" d="M 1613.5,803.5 C 1622.4,810.596 1628.9,819.596 1633,830.5C 1636.23,863.299 1631.9,864.965 1620,835.5C 1615.64,825.268 1613.48,814.602 1613.5,803.5 Z"/></g>
<g><path style="opacity:1" fill="#13afef" d="M 1090.5,816.5 C 1123.55,817.889 1139.21,835.223 1137.5,868.5C 1108.5,868.5 1079.5,868.5 1050.5,868.5C 1049.8,845.719 1059.46,829.219 1079.5,819C 1083.31,818.205 1086.98,817.371 1090.5,816.5 Z"/></g>
<g><path style="opacity:1" fill="#fafdfe" d="M 1321.5,818.5 C 1324.46,821.06 1326.96,824.06 1329,827.5C 1335.7,839.257 1341.03,851.59 1345,864.5C 1346.58,869.413 1347.25,874.413 1347,879.5C 1332.89,870.293 1324.55,857.293 1322,840.5C 1321.5,833.174 1321.33,825.841 1321.5,818.5 Z"/></g>
<g><path style="opacity:1" fill="#fafdfe" d="M 1655.5,819.5 C 1656.17,821.833 1656.83,824.167 1657.5,826.5C 1658.59,848.991 1650.09,866.658 1632,879.5C 1634.52,857.45 1642.36,837.45 1655.5,819.5 Z"/></g>
<g><path style="opacity:1" fill="#80d7f7" d="M 1179.5,820.5 C 1189.5,820.5 1199.5,820.5 1209.5,820.5C 1209.5,870.5 1209.5,920.5 1209.5,970.5C 1208.5,921.003 1208.17,871.336 1208.5,821.5C 1198.65,821.827 1188.99,821.494 1179.5,820.5 Z"/></g>
<g><path style="opacity:1" fill="#56c7f4" d="M 1281.5,820.5 C 1268.68,821.495 1255.68,821.829 1242.5,821.5C 1242.5,871.5 1242.5,921.5 1242.5,971.5C 1231.32,971.828 1220.32,971.495 1209.5,970.5C 1220.17,970.5 1230.83,970.5 1241.5,970.5C 1241.5,920.5 1241.5,870.5 1241.5,820.5C 1254.83,820.5 1268.17,820.5 1281.5,820.5 Z"/></g>
<g><path style="opacity:1" fill="#afe5f9" d="M 1655.5,819.5 C 1655.56,818.957 1655.89,818.624 1656.5,818.5C 1657.48,821.086 1657.81,823.753 1657.5,826.5C 1656.83,824.167 1656.17,821.833 1655.5,819.5 Z"/></g>
<g><path style="opacity:1" fill="#fcfefe" d="M 1364.5,837.5 C 1366.07,838.681 1366.9,840.347 1367,842.5C 1368.26,858.654 1367.26,874.654 1364,890.5C 1363.28,892.949 1362.28,895.283 1361,897.5C 1348.88,876.793 1350.04,856.793 1364.5,837.5 Z"/></g>
<g><path style="opacity:1" fill="#f9fdfe" d="M 1613.5,837.5 C 1627.23,854.299 1629.73,872.633 1621,892.5C 1620.06,894.061 1618.89,895.395 1617.5,896.5C 1615.24,892.476 1613.74,888.142 1613,883.5C 1610.79,871.249 1610.12,858.916 1611,846.5C 1611.2,843.278 1612.03,840.278 1613.5,837.5 Z"/></g>
<g><path style="opacity:1" fill="#44c2f3" d="M 999.5,851.5 C 1000.4,852.209 1000.74,853.209 1000.5,854.5C 989.321,854.828 978.321,854.495 967.5,853.5C 978.552,854.143 989.219,853.476 999.5,851.5 Z"/></g>
<g><path style="opacity:1" fill="#fbfdfe" d="M 1325.5,869.5 C 1341.88,880.712 1355.38,894.712 1366,911.5C 1368.94,915.374 1370.77,919.707 1371.5,924.5C 1351.76,917.936 1337.93,904.936 1330,885.5C 1327.99,880.293 1326.49,874.96 1325.5,869.5 Z"/></g>
<g><path style="opacity:1" fill="#fcfefe" d="M 1652.5,869.5 C 1648.2,895.971 1633.37,914.304 1608,924.5C 1607.5,924.167 1607,923.833 1606.5,923.5C 1617.16,901.51 1632.49,883.51 1652.5,869.5 Z"/></g>
<g><path style="opacity:1" fill="#fafdfe" d="M 1604.5,873.5 C 1611.62,888.909 1611.12,904.242 1603,919.5C 1598.93,925.404 1593.76,930.071 1587.5,933.5C 1586.34,930.216 1586.18,926.882 1587,923.5C 1589.57,905.609 1595.41,888.943 1604.5,873.5 Z"/></g>
<g><path style="opacity:1" fill="#fbfdfe" d="M 1372.5,873.5 C 1374.62,874.031 1376.12,875.365 1377,877.5C 1386.39,895.05 1391.05,913.717 1391,933.5C 1376.02,924.87 1368.85,911.87 1369.5,894.5C 1369.45,887.336 1370.45,880.336 1372.5,873.5 Z"/></g>
<g><path style="opacity:1" fill="#88d9f7" d="M 1171.5,865.5 C 1172.49,873.984 1172.83,882.651 1172.5,891.5C 1131.83,891.5 1091.17,891.5 1050.5,891.5C 1090.66,890.501 1131,890.168 1171.5,890.5C 1171.5,882.167 1171.5,873.833 1171.5,865.5 Z"/></g>
<g><path style="opacity:1" fill="#fbfdfe" d="M 1393.5,910.5 C 1407.27,919.089 1419.77,929.422 1431,941.5C 1433.97,945.118 1436.14,949.118 1437.5,953.5C 1420.47,955.734 1407.97,949.401 1400,934.5C 1396.91,926.741 1394.75,918.741 1393.5,910.5 Z"/></g>
<g><path style="opacity:1" fill="#fcfefe" d="M 1583.5,910.5 C 1583.62,922.967 1579.79,934.301 1572,944.5C 1563.07,951.444 1552.9,954.444 1541.5,953.5C 1541.64,949.562 1543.14,946.228 1546,943.5C 1557.73,931.423 1570.23,920.423 1583.5,910.5 Z"/></g>
<g><path style="opacity:1" fill="#7fd6f6" d="M 1135.5,917.5 C 1146.99,916.505 1158.65,916.172 1170.5,916.5C 1170.74,917.791 1170.4,918.791 1169.5,919.5C 1158.55,917.522 1147.22,916.856 1135.5,917.5 Z"/></g>
<g><path style="opacity:1" fill="#fbfdfe" d="M 1347.5,921.5 C 1349.53,921.338 1351.53,921.505 1353.5,922C 1369.02,928.092 1383.68,935.758 1397.5,945C 1401.5,947.667 1404.83,951 1407.5,955C 1388.86,959.26 1373.03,954.427 1360,940.5C 1354.82,934.794 1350.65,928.461 1347.5,921.5 Z"/></g>
<g><path style="opacity:1" fill="#fcfefe" d="M 1626.5,921.5 C 1628.2,921.34 1629.87,921.506 1631.5,922C 1624.5,935.667 1614.17,946 1600.5,953C 1590.94,956.749 1581.28,957.249 1571.5,954.5C 1576.06,948.443 1581.73,943.61 1588.5,940C 1600.59,932.452 1613.26,926.285 1626.5,921.5 Z"/></g>
<g><path style="opacity:1" fill="#fafdfe" d="M 1429.5,956.5 C 1449.94,955.554 1469.77,958.554 1489,965.5C 1522.71,954.045 1556.54,953.878 1590.5,965C 1569.88,974.261 1548.55,976.594 1526.5,972C 1522.13,969.152 1517.79,966.319 1513.5,963.5C 1507.67,964.833 1502,966.666 1496.5,969C 1510.66,976.832 1522.66,987.166 1532.5,1000C 1530.49,1003.18 1527.83,1004.35 1524.5,1003.5C 1518.01,996.514 1511.35,989.681 1504.5,983C 1499.88,979.204 1494.88,976.038 1489.5,973.5C 1484.46,975.701 1479.8,978.534 1475.5,982C 1467.3,989.203 1459.47,996.703 1452,1004.5C 1449.87,1003.37 1448.03,1001.87 1446.5,1000C 1451.45,992.719 1457.45,986.386 1464.5,981C 1470.17,977.167 1475.83,973.333 1481.5,969.5C 1476,966.663 1470.17,964.663 1464,963.5C 1457.87,969.815 1450.37,973.315 1441.5,974C 1423.04,975.645 1405.37,972.645 1388.5,965C 1402.01,960.799 1415.67,957.966 1429.5,956.5 Z"/></g>
<g><path style="opacity:1" fill="#5fcaf4" d="M 648.5,868.5 C 648.5,903.167 648.5,937.833 648.5,972.5C 636.988,972.828 625.654,972.495 614.5,971.5C 614.833,971.5 615.167,971.5 615.5,971.5C 626.167,971.5 636.833,971.5 647.5,971.5C 647.168,936.996 647.502,902.663 648.5,868.5 Z"/></g>
<g><path style="opacity:1" fill="#fefffe" d="M 1644.5,1090.5 C 1644.5,1092.5 1644.5,1094.5 1644.5,1096.5C 1240.17,1096.5 835.833,1096.5 431.5,1096.5C 431.5,1094.5 431.5,1092.5 431.5,1090.5C 835.833,1090.5 1240.17,1090.5 1644.5,1090.5 Z"/></g>
<g><path style="opacity:1" fill="#beeafa" d="M 1644.5,1090.5 C 1645.47,1092.61 1645.8,1094.94 1645.5,1097.5C 1240.67,1097.83 836,1097.5 431.5,1096.5C 835.833,1096.5 1240.17,1096.5 1644.5,1096.5C 1644.5,1094.5 1644.5,1092.5 1644.5,1090.5 Z"/></g>
<g><path style="opacity:1" fill="#fefefe" d="M 464.5,1202.5 C 464.5,1207.5 464.5,1212.5 464.5,1217.5C 472.833,1217.5 481.167,1217.5 489.5,1217.5C 489.5,1221.5 489.5,1225.5 489.5,1229.5C 481.167,1229.5 472.833,1229.5 464.5,1229.5C 464.5,1262.17 464.5,1294.83 464.5,1327.5C 460.167,1327.5 455.833,1327.5 451.5,1327.5C 451.5,1294.83 451.5,1262.17 451.5,1229.5C 444.167,1229.5 436.833,1229.5 429.5,1229.5C 429.5,1225.5 429.5,1221.5 429.5,1217.5C 436.833,1217.5 444.167,1217.5 451.5,1217.5C 451.5,1208.83 451.5,1200.17 451.5,1191.5C 451.411,1175.09 459.578,1166.76 476,1166.5C 480.599,1166.77 485.099,1167.61 489.5,1169C 490.456,1172.39 490.789,1175.89 490.5,1179.5C 471.128,1175.21 462.461,1182.88 464.5,1202.5 Z"/></g>
<g><path style="opacity:1" fill="#fefefe" d="M 1454.5,1256.5 C 1454.5,1279.83 1454.5,1303.17 1454.5,1326.5C 1450.17,1326.5 1445.83,1326.5 1441.5,1326.5C 1441.67,1300.16 1441.5,1273.83 1441,1247.5C 1434.93,1230.21 1422.76,1223.37 1404.5,1227C 1393.17,1231 1386,1238.83 1383,1250.5C 1381.54,1276.12 1381.04,1301.78 1381.5,1327.5C 1377.17,1327.5 1372.83,1327.5 1368.5,1327.5C 1368.5,1274.83 1368.5,1222.17 1368.5,1169.5C 1372.83,1169.5 1377.17,1169.5 1381.5,1169.5C 1381.33,1190.84 1381.5,1212.17 1382,1233.5C 1393.37,1216.09 1409.2,1210.25 1429.5,1216C 1441,1219.5 1448.5,1227 1452,1238.5C 1453.8,1244.37 1454.63,1250.37 1454.5,1256.5 Z"/></g>
<g><path style="opacity:1" fill="#fbfdfe" d="M 1475.5,1169.5 C 1480.83,1169.5 1486.17,1169.5 1491.5,1169.5C 1491.5,1174.83 1491.5,1180.17 1491.5,1185.5C 1486.17,1185.5 1480.83,1185.5 1475.5,1185.5C 1475.5,1180.17 1475.5,1174.83 1475.5,1169.5 Z"/></g>
<g><path style="opacity:1" fill="#fefffe" d="M 1528.5,1169.5 C 1528.5,1221.83 1528.5,1274.17 1528.5,1326.5C 1524.17,1326.5 1519.83,1326.5 1515.5,1326.5C 1515.5,1274.17 1515.5,1221.83 1515.5,1169.5C 1519.83,1169.5 1524.17,1169.5 1528.5,1169.5 Z"/></g>
<g><path style="opacity:1" fill="#84d8f7" d="M 1528.5,1169.5 C 1529.5,1222 1529.83,1274.66 1529.5,1327.5C 1524.64,1327.82 1519.97,1327.49 1515.5,1326.5C 1519.83,1326.5 1524.17,1326.5 1528.5,1326.5C 1528.5,1274.17 1528.5,1221.83 1528.5,1169.5 Z"/></g>
<g><path style="opacity:1" fill="#beeafa" d="M 1632.5,1169.5 C 1632.83,1190.84 1632.5,1212.18 1631.5,1233.5C 1630.89,1233.38 1630.56,1233.04 1630.5,1232.5C 1631.17,1211.5 1631.83,1190.5 1632.5,1169.5 Z"/></g>
<g><path style="opacity:1" fill="#fbfdfe" d="M 1632.5,1169.5 C 1636.83,1169.5 1641.17,1169.5 1645.5,1169.5C 1645.5,1220.17 1645.5,1270.83 1645.5,1321.5C 1645.5,1323.17 1645.5,1324.83 1645.5,1326.5C 1641.17,1326.5 1636.83,1326.5 1632.5,1326.5C 1632.5,1323.83 1632.5,1321.17 1632.5,1318.5C 1632.81,1315.75 1632.48,1313.09 1631.5,1310.5C 1630.89,1310.62 1630.56,1310.96 1630.5,1311.5C 1615.39,1329.78 1596.72,1334.61 1574.5,1326C 1561.6,1318.07 1553.77,1306.57 1551,1291.5C 1546.23,1272.08 1548.23,1253.41 1557,1235.5C 1567.76,1218.21 1583.26,1211.38 1603.5,1215C 1614.93,1217.36 1623.93,1223.2 1630.5,1232.5C 1630.56,1233.04 1630.89,1233.38 1631.5,1233.5C 1632.5,1212.18 1632.83,1190.84 1632.5,1169.5 Z"/></g>
<g><path style="opacity:1" fill="#fcfefe" d="M 534.5,1214.5 C 566.921,1211.12 587.088,1225.12 595,1256.5C 599.016,1274.88 596.349,1292.21 587,1308.5C 574.796,1325.35 558.296,1332.51 537.5,1330C 514.472,1325.5 500.638,1311.67 496,1288.5C 492.207,1270.6 494.54,1253.6 503,1237.5C 510.598,1225.72 521.098,1218.05 534.5,1214.5 Z"/></g>
<g><path style="opacity:1" fill="#fdfefe" d="M 666.5,1214.5 C 667.089,1218.97 666.423,1222.97 664.5,1226.5C 644.023,1224.81 632.19,1234.14 629,1254.5C 628.5,1278.83 628.333,1303.16 628.5,1327.5C 624.167,1327.5 619.833,1327.5 615.5,1327.5C 615.788,1290.82 615.455,1254.15 614.5,1217.5C 619.167,1217.5 623.833,1217.5 628.5,1217.5C 628.334,1222.84 628.501,1228.18 629,1233.5C 636.429,1217.53 648.929,1211.2 666.5,1214.5 Z"/></g>
<g><path style="opacity:1" fill="#7dd6f6" d="M 666.5,1214.5 C 667.485,1218.63 667.818,1222.97 667.5,1227.5C 666.209,1227.74 665.209,1227.4 664.5,1226.5C 666.423,1222.97 667.089,1218.97 666.5,1214.5 Z"/></g>
<g><path style="opacity:1" fill="#fcfefe" d="M 800.5,1292.5 C 805.032,1292.18 809.366,1292.52 813.5,1293.5C 808.192,1315.66 794.192,1327.82 771.5,1330C 750.357,1332.63 734.524,1324.8 724,1306.5C 714.4,1284.63 714.066,1262.63 723,1240.5C 734.853,1218.99 753.019,1210.49 777.5,1215C 797.642,1220.09 809.476,1232.92 813,1253.5C 814.816,1260.73 815.649,1268.06 815.5,1275.5C 787.167,1275.5 758.833,1275.5 730.5,1275.5C 730.311,1290.81 735.978,1303.31 747.5,1313C 764.957,1322.2 780.457,1319.7 794,1305.5C 796.74,1301.35 798.907,1297.02 800.5,1292.5 Z"/></g>
<g><path style="opacity:1" fill="#fcfefe" d="M 1008.5,1292.5 C 1013.03,1292.18 1017.37,1292.52 1021.5,1293.5C 1016.2,1315.65 1002.2,1327.82 979.5,1330C 949.554,1331.93 931.721,1318.1 926,1288.5C 920.519,1264.31 926.019,1243.14 942.5,1225C 955.195,1215.19 969.528,1211.86 985.5,1215C 1005.64,1220.09 1017.48,1232.92 1021,1253.5C 1022.82,1260.73 1023.65,1268.06 1023.5,1275.5C 995.167,1275.5 966.833,1275.5 938.5,1275.5C 938.311,1290.81 943.978,1303.31 955.5,1313C 972.957,1322.2 988.457,1319.7 1002,1305.5C 1004.74,1301.35 1006.91,1297.02 1008.5,1292.5 Z"/></g>
<g><path style="opacity:1" fill="#fdfefe" d="M 1094.5,1214.5 C 1095.09,1218.97 1094.42,1222.97 1092.5,1226.5C 1072.02,1224.81 1060.19,1234.14 1057,1254.5C 1056.5,1278.83 1056.33,1303.16 1056.5,1327.5C 1052.17,1327.5 1047.83,1327.5 1043.5,1327.5C 1043.79,1290.82 1043.45,1254.15 1042.5,1217.5C 1047.17,1217.5 1051.83,1217.5 1056.5,1217.5C 1056.33,1222.84 1056.5,1228.18 1057,1233.5C 1064.43,1217.53 1076.93,1211.2 1094.5,1214.5 Z"/></g>
<g><path style="opacity:1" fill="#7dd5f6" d="M 1094.5,1214.5 C 1095.48,1218.63 1095.82,1222.97 1095.5,1227.5C 1094.21,1227.74 1093.21,1227.4 1092.5,1226.5C 1094.42,1222.97 1095.09,1218.97 1094.5,1214.5 Z"/></g>
<g><path style="opacity:1" fill="#fcfefe" d="M 1349.5,1247.5 C 1349.5,1248.5 1349.5,1249.5 1349.5,1250.5C 1344.83,1250.5 1340.17,1250.5 1335.5,1250.5C 1334.48,1237.97 1327.81,1230.14 1315.5,1227C 1309.83,1226.33 1304.17,1226.33 1298.5,1227C 1287.14,1232.03 1279.64,1240.53 1276,1252.5C 1271.3,1270.64 1273.3,1287.97 1282,1304.5C 1293.55,1319.82 1307.72,1322.65 1324.5,1313C 1331.19,1307.78 1334.86,1300.94 1335.5,1292.5C 1340.17,1292.5 1344.83,1292.5 1349.5,1292.5C 1347.75,1313.75 1336.42,1326.25 1315.5,1330C 1285.74,1332.2 1267.57,1318.7 1261,1289.5C 1257.22,1270.97 1259.55,1253.31 1268,1236.5C 1279.4,1218.89 1295.57,1211.72 1316.5,1215C 1335.36,1218.02 1346.36,1228.86 1349.5,1247.5 Z"/></g>
<g><path style="opacity:1" fill="#41c2f3" d="M 451.5,1191.5 C 451.5,1200.17 451.5,1208.83 451.5,1217.5C 444.167,1217.5 436.833,1217.5 429.5,1217.5C 436.313,1216.51 443.313,1216.18 450.5,1216.5C 450.174,1207.98 450.507,1199.65 451.5,1191.5 Z"/></g>
<g><path style="opacity:1" fill="#41c2f3" d="M 464.5,1202.5 C 465.486,1206.97 465.819,1211.64 465.5,1216.5C 473.684,1216.17 481.684,1216.51 489.5,1217.5C 481.167,1217.5 472.833,1217.5 464.5,1217.5C 464.5,1212.5 464.5,1207.5 464.5,1202.5 Z"/></g>
<g><path style="opacity:1" fill="#fcfefe" d="M 818.5,1218.5 C 823.348,1217.19 828.348,1217.19 833.5,1218.5C 845.742,1248.64 858.242,1278.64 871,1308.5C 882.735,1278.46 894.569,1248.46 906.5,1218.5C 911.467,1217.34 916.467,1217.17 921.5,1218C 906.672,1254.32 892.338,1290.82 878.5,1327.5C 873.238,1327.8 868.072,1327.47 863,1326.5C 848.434,1290.28 833.6,1254.28 818.5,1218.5 Z"/></g>
<g><path style="opacity:1" fill="#fcfefe" d="M 1150.5,1368.5 C 1145.64,1368.82 1140.97,1368.49 1136.5,1367.5C 1141.73,1353.99 1147.06,1340.49 1152.5,1327C 1137.64,1290.78 1122.64,1254.61 1107.5,1218.5C 1112.83,1217.17 1118.17,1217.17 1123.5,1218.5C 1135.94,1248.39 1148.11,1278.39 1160,1308.5C 1172,1278.5 1184,1248.5 1196,1218.5C 1200.78,1217.2 1205.62,1217.2 1210.5,1218.5C 1190.48,1268.53 1170.48,1318.53 1150.5,1368.5 Z"/></g>
<g><path style="opacity:1" fill="#ace4f9" d="M 1477.5,1217.5 C 1477.5,1253.83 1477.5,1290.17 1477.5,1326.5C 1481.5,1326.5 1485.5,1326.5 1489.5,1326.5C 1489.5,1290.17 1489.5,1253.83 1489.5,1217.5C 1490.5,1254 1490.83,1290.66 1490.5,1327.5C 1485.83,1327.5 1481.17,1327.5 1476.5,1327.5C 1476.17,1290.66 1476.5,1254 1477.5,1217.5 Z"/></g>
<g><path style="opacity:1" fill="#fefffe" d="M 1477.5,1217.5 C 1481.5,1217.5 1485.5,1217.5 1489.5,1217.5C 1489.5,1253.83 1489.5,1290.17 1489.5,1326.5C 1485.5,1326.5 1481.5,1326.5 1477.5,1326.5C 1477.5,1290.17 1477.5,1253.83 1477.5,1217.5 Z"/></g>
<g><path style="opacity:1" fill="#09aeef" d="M 536.5,1226.5 C 557.359,1223.67 571.525,1232.01 579,1251.5C 584.751,1269.24 583.084,1286.24 574,1302.5C 565.679,1314.61 554.179,1319.78 539.5,1318C 528.476,1315.65 520.309,1309.48 515,1299.5C 505.824,1279.82 506.49,1260.48 517,1241.5C 522.234,1234.76 528.734,1229.76 536.5,1226.5 Z"/></g>
<g><path style="opacity:1" fill="#0cafef" d="M 757.5,1226.5 C 784.534,1224.21 798.867,1236.54 800.5,1263.5C 777.5,1263.5 754.5,1263.5 731.5,1263.5C 732.449,1245.58 741.115,1233.25 757.5,1226.5 Z"/></g>
<g><path style="opacity:1" fill="#0cafef" d="M 965.5,1226.5 C 992.534,1224.21 1006.87,1236.54 1008.5,1263.5C 985.5,1263.5 962.5,1263.5 939.5,1263.5C 940.449,1245.58 949.115,1233.25 965.5,1226.5 Z"/></g>
<g><path style="opacity:1" fill="#08aeef" d="M 1587.5,1226.5 C 1612.4,1223.86 1626.9,1234.86 1631,1259.5C 1632.88,1274.55 1630.55,1288.88 1624,1302.5C 1612.69,1317.6 1598.19,1321.77 1580.5,1315C 1570.07,1306.42 1564.57,1295.25 1564,1281.5C 1561.26,1265.75 1563.92,1251.09 1572,1237.5C 1576.48,1232.69 1581.64,1229.03 1587.5,1226.5 Z"/></g>
<g><path style="opacity:1" fill="#b0e5fa" d="M 1349.5,1247.5 C 1350.43,1248.57 1350.77,1249.9 1350.5,1251.5C 1345.31,1251.82 1340.31,1251.49 1335.5,1250.5C 1340.17,1250.5 1344.83,1250.5 1349.5,1250.5C 1349.5,1249.5 1349.5,1248.5 1349.5,1247.5 Z"/></g>
<g><path style="opacity:1" fill="#89d9f7" d="M 1454.5,1256.5 C 1455.5,1279.99 1455.83,1303.66 1455.5,1327.5C 1450.64,1327.82 1445.97,1327.49 1441.5,1326.5C 1445.83,1326.5 1450.17,1326.5 1454.5,1326.5C 1454.5,1303.17 1454.5,1279.83 1454.5,1256.5 Z"/></g>
<g><path style="opacity:1" fill="#7ad4f6" d="M 800.5,1292.5 C 805.015,1291.19 809.682,1291.19 814.5,1292.5C 814.376,1293.11 814.043,1293.44 813.5,1293.5C 809.366,1292.52 805.032,1292.18 800.5,1292.5 Z"/></g>
<g><path style="opacity:1" fill="#7ad4f6" d="M 1008.5,1292.5 C 1013.02,1291.19 1017.68,1291.19 1022.5,1292.5C 1022.38,1293.11 1022.04,1293.44 1021.5,1293.5C 1017.37,1292.52 1013.03,1292.18 1008.5,1292.5 Z"/></g>
<g><path style="opacity:1" fill="#91dbf8" d="M 1630.5,1311.5 C 1630.56,1310.96 1630.89,1310.62 1631.5,1310.5C 1632.48,1313.09 1632.81,1315.75 1632.5,1318.5C 1631.83,1316.17 1631.17,1313.83 1630.5,1311.5 Z"/></g>
<g><path style="opacity:1" fill="#b3e7fa" d="M 1645.5,1321.5 C 1646.46,1323.26 1646.79,1325.26 1646.5,1327.5C 1641.64,1327.82 1636.97,1327.49 1632.5,1326.5C 1636.83,1326.5 1641.17,1326.5 1645.5,1326.5C 1645.5,1324.83 1645.5,1323.17 1645.5,1321.5 Z"/></g>
<g><path style="opacity:1" fill="#7bd5f6" d="M 1136.5,1367.5 C 1140.97,1368.49 1145.64,1368.82 1150.5,1368.5C 1145.65,1369.81 1140.65,1369.81 1135.5,1368.5C 1135.62,1367.89 1135.96,1367.56 1136.5,1367.5 Z"/></g>
</svg>
