<svg width="139" height="120" viewBox="0 0 139 120" fill="currentColor" xmlns="http://www.w3.org/2000/svg">
    <path d="M68.8966 0C43.0784 0 21.8164 20.9524 21.8164 47.2381C21.8164 73.1429 42.6987 94.4762 68.8966 94.4762C94.7148 94.4762 115.977 73.5238 115.977 47.2381C115.977 20.9524 94.7148 0 68.8966 0ZM105.346 20.9524C103.068 22.4762 100.41 24 97.7522 25.5238C96.2335 22.4762 94.3351 19.4286 92.057 16.7619C93.9554 15.619 95.8538 14.0952 97.3725 12.9524C100.79 14.8571 103.447 17.9048 105.346 20.9524ZM85.6025 5.33333C89.3993 6.85714 92.8164 8.7619 96.2335 11.4286C94.7148 12.9524 92.8164 14.0952 90.918 15.2381C88.6399 12.5714 85.9822 10.2857 83.3244 8C84.0838 6.85714 84.8431 6.09524 85.6025 5.33333ZM89.3993 16C86.7415 17.5238 84.0838 18.2857 81.426 19.4286C80.287 16.7619 79.1479 14.0952 77.6292 11.8095C79.1479 11.0476 80.6667 10.2857 81.8057 9.14286C84.4634 11.0476 87.1212 13.3333 89.3993 16ZM83.7041 4.57143C82.9447 5.33333 82.1854 6.09524 81.8057 6.85714C79.1479 5.33333 76.8699 3.80952 73.8324 2.66667C77.2496 2.66667 80.6667 3.42857 83.7041 4.57143ZM80.287 8C79.1479 8.7619 78.0089 9.52381 76.8699 9.90476C75.3512 7.61905 73.8324 5.71429 72.3137 3.42857C74.9715 4.57143 77.6292 6.09524 80.287 8ZM69.656 3.80952C71.5544 5.71429 73.0731 8 74.5918 10.6667C73.0731 11.0476 71.5544 11.4286 69.656 11.4286V3.80952ZM69.656 13.3333C71.5544 13.3333 73.8324 12.9524 75.7308 12.1905C77.2496 14.4762 78.3886 17.1429 79.5276 19.8095C76.4902 20.5714 73.0731 20.9524 69.656 21.3333V13.3333ZM67.7576 3.80952V11.4286C66.2389 11.4286 64.7201 11.0476 62.8217 10.6667C64.7201 8.38095 66.2389 6.09524 67.7576 3.80952ZM61.303 9.90476C60.164 9.52381 58.6453 8.7619 57.8859 8C60.5437 6.47619 63.2014 4.95238 65.8592 3.80952C63.9608 5.71429 62.4421 7.61905 61.303 9.90476ZM63.9608 2.28571C61.303 3.42857 58.6453 4.95238 55.9875 6.47619C55.2282 5.71429 54.4688 4.95238 54.0891 4.19048C57.1266 3.42857 60.5437 2.66667 63.9608 2.28571ZM96.2335 83.0476C90.1586 79.619 89.779 74.6667 90.1587 73.1429C90.5383 71.2381 91.6774 72 92.4367 72C96.6132 72 100.79 70.8571 106.105 65.1429C112.18 59.0476 114.078 45.3333 104.586 36.5714C94.7148 27.0476 84.0838 28.5714 77.2496 37.3333C75.7308 39.2381 72.3137 40.381 69.656 40.381C65.0998 40.381 68.1373 43.8095 68.1373 44.5714C68.1373 45.3333 67.3779 45.7143 66.9982 45.7143C65.4795 45.3333 66.2389 47.619 66.2389 48C66.2389 48.381 65.4795 49.1429 65.4795 49.1429C63.5811 49.1429 63.9608 50.6667 64.3405 51.4286C64.3405 51.8095 64.3405 52.5714 63.5811 52.9524C62.8218 53.3333 62.4421 54.8571 62.4421 56C62.4421 57.9048 64.3405 59.4286 67.3779 61.7143C70.4153 64 70.795 66.2857 70.795 67.8095C70.795 69.3333 71.1747 72 71.5544 73.5238C72.3137 75.4286 72.3137 79.2381 68.1373 79.2381C62.8217 79.619 53.7094 83.4286 52.9501 83.8095C49.9127 84.9524 46.1159 85.3333 43.0784 84.5714C41.5597 83.4286 40.041 82.2857 38.5223 80.7619C37.7629 78.8571 38.902 76.5714 40.041 75.0476C41.9394 76.9524 44.2175 76.5714 45.7362 76.5714C47.2549 76.5714 54.0891 75.4286 55.2282 75.0476C56.3672 74.6667 56.7469 74.6667 57.1266 75.0476C59.7843 76.1905 63.5811 76.1905 65.0998 71.2381C66.6185 65.9048 63.2014 67.4286 62.4421 67.8095C62.0624 68.1905 61.303 67.8095 61.6827 67.4286C62.4421 66.2857 61.303 66.2857 60.9233 66.2857C59.4046 66.2857 57.5062 67.8095 57.1266 68.1905C56.3672 68.5714 55.9875 68.5714 55.6078 68.5714C53.7094 67.4286 48.0142 68.9524 46.1158 65.9048C46.1158 65.1429 44.5971 52.5714 43.8378 50.2857C43.8378 49.9048 43.4581 49.1429 44.2175 48.381C45.7362 46.0952 49.533 48.381 51.811 48.381C54.4688 48.381 54.8485 47.2381 55.6078 46.4762C56.3672 45.7143 56.7469 46.0952 57.1266 45.7143C57.5062 45.3333 57.1266 44.9524 57.1266 44.5714C57.1266 44.1905 57.5062 44.5714 57.8859 44.1905C58.2656 43.8095 57.8859 43.0476 57.8859 42.6667C58.6453 41.5238 60.164 42.2857 59.4046 40C59.0249 38.4762 59.7843 36.9524 60.5437 36.1905C61.6827 34.6667 66.6185 27.8095 58.2656 20.5714C50.2923 13.7143 41.9394 14.4762 36.6239 20.1905C31.3084 25.9048 33.9661 34.2857 34.3458 36.5714C34.7255 38.8571 33.2068 40.7619 31.3084 41.5238C29.7897 42.2857 26.3726 44.5714 24.0945 46.4762C24.4742 28.1905 35.4849 12.1905 52.1907 5.71429C52.9501 6.47619 53.7094 7.61905 54.4688 8.38095C52.5704 9.90476 48.3939 13.3333 48.3939 13.3333C48.3939 13.3333 48.7736 13.3333 49.533 13.7143C49.9126 13.7143 50.672 14.0952 50.672 14.0952C50.672 14.0952 54.0891 11.0476 55.9875 9.90476C57.1266 11.0476 58.6453 11.8095 60.164 12.5714C59.4046 14.0952 57.1266 17.9048 57.1266 17.9048C57.1266 17.9048 57.5062 18.2857 57.8859 18.2857C58.2656 18.6667 58.6453 18.6667 58.6453 18.6667C58.6453 18.6667 60.9234 14.4762 61.6827 12.9524C63.5811 13.7143 65.4795 14.0952 67.3779 14.0952V21.7143C66.2389 21.7143 63.5811 21.7143 62.4421 21.3333H61.6827L62.0624 22.0952C62.4421 22.4762 62.4421 22.8571 62.8217 23.2381C63.5811 23.2381 66.2389 23.2381 67.3779 23.2381V37.3333H69.2763V33.9048C72.3137 33.9048 74.5918 33.5238 77.2496 33.1429L79.9073 30.8571H78.3886C75.3511 31.2381 72.6934 31.619 70.4153 31.619C70.4153 31.619 69.656 31.619 69.2763 31.619V22.8571C72.6934 22.8571 76.4902 22.4762 79.9073 21.3333C80.6667 23.619 82.5651 29.3333 82.5651 29.3333L84.4635 28.5714C84.4635 28.5714 82.5651 22.8571 81.8057 20.5714C84.8431 19.8095 87.5009 18.2857 90.1587 17.1429C92.4367 19.8095 94.3351 22.8571 95.8538 25.9048C94.3351 26.6667 92.057 27.4286 92.057 27.4286C93.9554 27.8095 95.4741 28.1905 95.4741 28.1905C95.4741 28.1905 96.2335 27.8095 96.6132 27.8095C96.6132 28.1905 96.9929 28.9524 96.9929 28.9524L99.6506 30.0952L99.2709 29.3333C99.2709 29.3333 98.5116 27.4286 98.1319 27.0476C100.79 25.9048 103.447 24.381 106.105 22.4762C111.041 29.7143 113.319 38.4762 113.319 47.2381C114.078 61.7143 106.865 74.6667 96.2335 83.0476Z" />
    <path d="M17.6434 12.5714L16.884 13.3333C14.2263 15.619 7.77171 22.0952 8.91075 29.3333V29.7142L9.29042 31.238L10.0498 30.4761C13.8466 27.0476 16.884 20.9523 18.0231 14.0952L18.4027 12.1904L17.6434 12.5714Z" />
    <path d="M4.73146 24.7618L4.35175 25.5237C3.97207 26.6666 3.21274 29.3332 2.83306 32.3809C2.0737 36.9523 2.45336 43.8094 6.25015 48.7618L6.62985 49.5237L7.00952 50.2856L7.76887 47.238C8.52823 41.9047 7.3892 30.8571 5.4908 25.9047L4.73146 24.3809V24.7618Z" />
    <path d="M0.177836 43.8094V44.5713C-0.201843 49.1427 0.177836 60.9522 9.66982 67.4284L10.8089 68.1903V66.6665C10.8089 62.0951 5.49335 48.7617 1.69656 44.1903L0.55751 42.6665L0.177836 43.8094Z" />
    <path d="M1.69531 64.7619V65.5238C3.21403 72.381 9.28889 83.0476 19.1605 86.4762L20.6793 86.8571L20.2996 85.3333C18.4012 80.381 8.90923 68.5714 2.83436 64.7619L1.69531 64V64.7619Z" />
    <path d="M21.817 22.857L20.6779 23.238C13.464 27.8094 10.0469 33.1427 10.0469 39.9999V41.5237L11.1859 40.7618C14.9827 37.3332 20.2982 28.9523 21.4372 24.3808L21.817 22.4761V22.857Z" />
    <path d="M17.2637 37.3331L16.8841 38.095C14.9857 39.9998 8.91079 46.476 9.29047 54.476C9.29047 55.6188 9.67014 57.1426 10.0498 58.2855L10.4295 59.4283L11.1889 58.2855C14.2263 54.095 18.0231 43.4283 17.6434 38.476V36.9521L17.2637 37.3331Z" />
    <path d="M17.6428 51.4288L17.2632 52.1907C14.2257 56.7621 12.707 61.3336 12.707 65.905C12.707 68.9526 13.8461 72.0002 15.7444 75.0479L16.5038 76.1907L16.8835 75.0479C18.0225 72.3812 19.1616 64.3812 19.1616 57.905C19.1616 55.6193 18.7819 53.7145 18.4022 52.5717L18.0225 51.0479L17.6428 51.4288Z" />
    <path d="M21.0572 66.2858L20.6775 67.0477C19.9182 70.0954 19.1588 72.762 19.5385 75.8096C19.5385 81.9049 22.5759 86.8573 27.8914 90.2858L28.6508 90.6668L29.0305 89.5239V88.3811C29.0305 83.4287 25.2337 70.4763 22.1963 66.6668L21.4369 65.5239L21.0572 66.2858Z" />
    <path d="M10.8094 86.0953L11.189 86.8572C14.9858 93.3334 21.82 102.095 34.3495 99.8096H35.4885L34.7291 99.0477C32.4511 95.6191 17.2639 86.8572 11.9484 86.0953L10.4297 85.7144L10.8094 86.0953Z" />
    <path d="M29.4101 102.857L27.5117 103.238L29.4101 104C37.3834 107.428 47.255 108.19 53.3299 106.286C55.608 105.524 56.747 104.381 58.2657 102.857C68.5171 104 78.009 112.381 83.7042 119.238L84.0839 119.619H84.4636C85.223 119.238 85.9823 118.476 86.362 118.095L86.7417 117.714L86.362 117.333C80.6668 109.714 71.5545 105.143 71.1748 104.762C62.8219 100.952 48.3941 97.9047 29.4101 102.857Z" />
    <path d="M29.7898 81.524V82.2859C30.9289 89.905 33.9663 99.8097 46.8754 98.6669H47.6347L47.2551 97.905C46.4957 94.4764 34.7256 84.5716 30.5492 81.905L29.4102 81.1431L29.7898 81.524Z" />
    <path d="M119.395 11.8096L119.774 13.7143C120.913 20.5715 123.951 26.6667 127.747 30.0953L128.507 30.8572L128.887 29.3334V28.9524C130.026 21.7143 123.571 15.2381 120.913 12.9524L120.154 12.1905L119.395 11.8096Z" />
    <path d="M132.683 24L131.924 25.5238C130.025 30.4762 129.266 41.5238 129.646 46.8571L130.405 49.9048L130.785 49.5238L131.164 48.7619C135.341 43.8095 135.341 37.3333 134.582 32.381C134.202 28.9524 133.443 26.6667 133.063 25.5238L132.683 24.7619V24Z" />
    <path d="M137.619 43.0479L136.479 44.5717C132.683 49.524 127.367 62.4764 127.367 67.0479V68.5717L128.506 67.8098C137.998 61.7145 138.378 49.905 137.998 44.9526V44.1907L137.619 43.0479Z" />
    <path d="M136.102 64L134.583 64.7619C128.508 68.5714 119.016 80.381 117.118 85.3333L116.738 86.8571L118.257 86.4762C128.129 83.4286 134.583 72.381 135.722 65.5238V64.7619L136.102 64Z" />
    <path d="M115.98 22.0952L116.36 24C117.879 28.9524 122.435 37.3333 126.611 40.7619L127.751 41.5238V40C128.13 33.1428 124.713 27.8095 117.499 23.2381L116.74 22.8571L115.98 22.0952Z" />
    <path d="M120.157 36.9521V38.476C119.777 43.4283 123.954 54.476 126.612 58.2855L127.371 59.4283L127.751 58.2855C128.13 56.7617 128.51 55.6188 128.51 54.476C128.89 46.476 122.815 39.9998 120.916 38.095L120.537 37.7141L120.157 36.9521Z" />
    <path d="M119.776 50.6665L119.396 52.1903C119.016 53.3332 118.637 55.2379 118.637 57.5236C118.637 63.9998 119.396 71.9998 120.915 74.6665L121.294 75.8094L122.054 74.6665C123.952 71.9998 125.091 68.9522 125.091 65.5236C125.091 61.3332 123.573 56.3808 120.535 51.8094L120.155 51.0475L119.776 50.6665Z" />
    <path d="M116.359 65.5239L115.6 66.6668C112.562 70.4763 108.766 83.4287 108.766 88.3811C108.766 88.3811 108.766 89.143 108.766 89.5239L109.145 90.6668L109.905 90.2858C115.22 86.8573 117.878 81.9049 118.258 75.8096C118.258 73.143 117.878 70.0954 117.119 67.0477L116.739 66.2858L116.359 65.5239Z" />
    <path d="M127.367 85.3335L125.849 85.7144C120.533 86.4764 105.346 95.2383 103.068 98.6668L102.309 99.4287H103.448C115.977 101.714 122.811 92.9525 126.608 86.4764L126.988 85.7144L127.367 85.3335Z" />
    <path d="M67.0004 104.762C66.6208 104.762 57.5085 109.714 51.8133 117.333L51.4336 117.714L51.8133 118.095C52.1929 118.476 53.332 119.238 53.7117 119.619H54.0914L54.471 119.238C60.1662 112.381 69.6582 103.619 79.9095 102.857C81.4282 104.381 82.947 105.524 84.8454 106.286C90.5406 108.19 100.792 107.428 108.765 104L110.664 103.238L108.765 102.857C89.4015 97.9047 74.9737 100.952 67.0004 104.762Z" />
    <path d="M108.006 80.7617L106.867 81.5236C102.69 84.1903 91.3 94.0951 90.161 97.5236L89.7812 98.2855H90.5406C103.07 99.4284 106.107 89.5236 107.626 81.9046V81.1427L108.006 80.7617Z" />
</svg>
