<svg width="108" height="120" viewBox="0 0 108 120" fill="currentColor" xmlns="http://www.w3.org/2000/svg">
    <path d="M74.5951 51.1183C77.9922 54.8548 78.3303 66.4031 86.9903 61.8175C92.0838 59.1006 92.0838 47.5522 85.1227 43.3064C79.5174 40.0792 76.4619 44.4954 74.424 49.9293C74.2554 50.4386 74.2554 50.7785 74.5951 51.1183ZM61.1806 49.2505C57.4455 52.1378 55.0678 60.459 48.4457 57.5717C43.0124 54.8548 42.5031 44.325 51.8419 39.4004C58.2945 36.3436 61.5213 42.2877 61.5213 48.5708C61.5204 48.7403 61.3509 49.0801 61.1806 49.2505ZM70.0109 70.1388C73.5766 69.7998 72.7276 66.4031 70.0109 65.7235C67.6332 64.8743 64.0676 64.365 61.3509 64.5345C56.7659 64.5345 56.9362 68.1006 59.3122 68.7803C61.1806 69.2896 62.3677 69.4591 63.8964 71.4972C65.2556 74.2151 64.5768 70.6481 70.0109 70.1388ZM86.8217 11.0392C91.2364 3.56712 99.0474 4.9256 102.954 8.66207C107.2 12.7375 108.048 17.4926 106.351 20.7198C104.143 25.1351 98.3704 30.4004 94.6344 25.3054C92.938 22.9283 89.54 20.2105 87.503 19.5308C84.6135 18.1723 84.1051 15.624 86.8217 11.0392Z"/>
    <path d="M104.65 43.8156C104.311 42.4571 103.631 42.6266 103.631 43.6461C103.971 57.2317 95.8207 71.8378 78.5007 72.0073C74.0859 72.0073 75.4451 78.9709 67.2935 75.4039C61.5196 71.4979 58.1234 79.3099 54.0476 70.9886C53.0291 68.6106 51.6699 67.592 49.9718 67.0827C32.8212 62.8369 27.3871 39.2308 42.5006 20.2103C45.3876 22.079 46.5756 22.418 49.8023 19.3612C51.3309 17.8323 54.217 16.134 55.7448 15.6247C59.3105 14.2662 61.3493 12.7374 58.1217 5.77462C56.6358 2.4944 54.6116 0.747294 52.4547 0H46.6868C45.0377 0.490864 43.5 1.2986 42.16 2.37799C37.7452 5.94411 34.8583 11.5484 40.2907 18.1722C25.0103 28.5316 22.2936 41.2681 22.6326 52.4766C22.9715 64.1945 20.0854 63.1759 23.8214 75.0632C24.1604 76.0827 23.3122 76.0827 22.8029 75.7437C6.8412 65.5538 -1.81881 34.3053 23.1427 17.1527C23.652 16.6433 23.4825 15.9637 21.4446 17.1527C-0.121556 28.5316 -2.1586 50.6088 1.40708 65.5538C3.10519 72.6861 0.55803 74.0454 3.27552 83.5557C9.72816 103.256 15.1614 104.952 22.9724 105.463C37.0665 105.463 27.3871 97.6515 28.0667 87.9709C28.0667 87.2904 28.7463 87.1218 29.0852 88.3099C36.8962 105.631 42.3303 121.426 62.7067 119.897C74.4223 118.369 67.9697 112.595 67.1206 109.197C58.4615 80.498 79.5158 73.7047 73.5733 101.725C69.6686 117.859 82.0638 116.16 90.8933 110.386C99.8939 104.613 111.103 65.3835 104.65 43.8156ZM70.3482 77.9505C68.3103 83.0463 58.292 81.348 57.9522 76.2531C57.9522 76.0836 58.292 76.0836 58.292 76.2531C62.8762 77.2717 67.1206 77.781 70.0076 77.781C70.1787 77.781 70.3482 77.6116 70.3482 77.9505Z" />
</svg>
